<svg xmlns="http://www.w3.org/2000/svg" width="129.79" height="41.022" viewBox="0 0 129.79 39.022"><g transform="translate(-6.633 -3.064)"><g transform="translate(6.633 3.064)"><path d="M24.952,43.144a5.393,5.393,0,0,1-2.694-.722L9.728,35.188a5.4,5.4,0,0,1-2.695-4.667V16.052a5.4,5.4,0,0,1,2.695-4.667l12.53-7.234a5.389,5.389,0,0,1,5.389,0l12.53,7.234a5.4,5.4,0,0,1,2.694,4.667V30.521a5.4,5.4,0,0,1-2.694,4.667l-12.53,7.234a5.393,5.393,0,0,1-2.694.722m0-39.253a4.935,4.935,0,0,0-2.464.66L9.959,11.785A4.94,4.94,0,0,0,7.5,16.052V30.521a4.94,4.94,0,0,0,2.464,4.267l12.53,7.234a4.926,4.926,0,0,0,4.927,0l12.53-7.234a4.94,4.94,0,0,0,2.464-4.267V16.052a4.94,4.94,0,0,0-2.464-4.267L27.416,4.551a4.935,4.935,0,0,0-2.464-.66" transform="translate(-6.873 -3.283)" fill="#05ed99"/><path d="M24.713,43.086a5.553,5.553,0,0,1-2.775-.744L9.408,35.108A5.565,5.565,0,0,1,6.633,30.3V15.834a5.565,5.565,0,0,1,2.775-4.806l12.53-7.234a5.642,5.642,0,0,1,5.549,0l12.53,7.234a5.565,5.565,0,0,1,2.775,4.806V30.3a5.565,5.565,0,0,1-2.775,4.806l-12.53,7.234A5.552,5.552,0,0,1,24.713,43.086Zm0-39.714a5.236,5.236,0,0,0-2.614.7L9.569,11.306a5.243,5.243,0,0,0-2.614,4.528V30.3A5.242,5.242,0,0,0,9.569,34.83L22.1,42.064a5.312,5.312,0,0,0,5.228,0l12.53-7.234A5.243,5.243,0,0,0,42.471,30.3V15.834a5.243,5.243,0,0,0-2.614-4.528L27.327,4.072A5.236,5.236,0,0,0,24.713,3.371Zm0,39.253a5.094,5.094,0,0,1-2.544-.682L9.639,34.709A5.1,5.1,0,0,1,7.095,30.3V15.834a5.1,5.1,0,0,1,2.544-4.406l12.53-7.234a5.172,5.172,0,0,1,5.088,0l12.53,7.234a5.1,5.1,0,0,1,2.544,4.406V30.3a5.1,5.1,0,0,1-2.544,4.407l-12.53,7.234A5.1,5.1,0,0,1,24.713,42.624Zm0-38.791a4.776,4.776,0,0,0-2.383.638L9.8,11.706a4.779,4.779,0,0,0-2.383,4.128V30.3A4.779,4.779,0,0,0,9.8,34.43l12.53,7.234a4.842,4.842,0,0,0,4.767,0l12.53-7.234A4.779,4.779,0,0,0,42.009,30.3V15.834a4.78,4.78,0,0,0-2.383-4.128L27.1,4.472A4.776,4.776,0,0,0,24.713,3.833Z" transform="translate(-6.633 -3.064)" fill="#05ed99"/><g transform="translate(4.65 9.314)"><path d="M45.1,29.978,43.851,26.6a.242.242,0,0,0-.262-.157.245.245,0,0,0-.209.222l-.288,2.071-1.473,2.412-5.4,1.3-4.443-.282-.023,0-.017,0-4.451.28-5.389-1.3-1.46-2.463-.31-2.028a.243.243,0,0,0-.208-.222.239.239,0,0,0-.263.156l-1.24,3.345-.007.03a.244.244,0,0,0-.006.051l0,.009.508,5.23.009.046a.243.243,0,0,0,.037.073l.012.018a.25.25,0,0,0,.088.064l5.784,2.474a.061.061,0,0,1,.036.05l.1,1.107L26.8,44.533l.677,2.065-.367,1.171a.245.245,0,0,0,.011.174l.648,1.411c.013.039.056.089.185.112l3.749.651.026,0h.025a.257.257,0,0,0,.043,0l3.683-.605.026-.007a.244.244,0,0,0,.221-.142l.651-1.419a.245.245,0,0,0,.011-.175L36.023,46.6l.679-2.07,1.821-5.4.1-1.1a.127.127,0,0,1,.076-.105l5.748-2.458a.247.247,0,0,0,.086-.063l.014-.019a.241.241,0,0,0,.038-.074.147.147,0,0,0,0-.017l.512-5.241v-.026a.287.287,0,0,0-.006-.05m-.469.306L44.19,34.43a.04.04,0,0,1-.073.018l-1.965-2.933a.249.249,0,0,1-.01-.262l1.137-2a.04.04,0,0,1,.06-.011l1.275,1a.04.04,0,0,1,.015.036m-1.106-1.539L43.7,27.57a.04.04,0,0,1,.078-.008l.669,1.783a.066.066,0,0,1-.1.075l-.811-.638-.015-.038m.467,6.39-4.726,2.021A.126.126,0,0,1,39.1,37.1a.122.122,0,0,1,0-.123l2.627-5.014a.084.084,0,0,1,.144-.007ZM32.069,32.59l0,.091,3.415.217a.071.071,0,0,1,.044.123l-3.467,3.232a.04.04,0,0,1-.068-.03l.012-3.482a.06.06,0,0,1,.06-.06V32.59Zm4.531.3a.061.061,0,0,1,.04-.032l4.484-1.085a.084.084,0,0,1,.094.121l-2.668,5.091a.126.126,0,0,1-.228-.009L36.6,32.939a.06.06,0,0,1,0-.051m1.31,4.51a.14.14,0,0,1-.123.056l-5.411-.743a.041.041,0,0,1-.022-.07l3.725-3.466a.055.055,0,0,1,.1.02l1.744,4.084a.123.123,0,0,1-.011.119m-4.132,2.785-1.709-.061a.04.04,0,0,1-.039-.04L32,37.75a.04.04,0,0,1,.073-.024l1.74,2.393a.04.04,0,0,1-.034.064m.319.539-.177,4.385a.034.034,0,0,1-.065.01l-1.108-2.923-.585-1.526a.04.04,0,0,1,.039-.055l1.857.066a.04.04,0,0,1,.039.042m-.385,5.392a.058.058,0,0,1-.007.055.062.062,0,0,1-.054.026h0l-1.6-.118a.04.04,0,0,1-.037-.04l.014-4.145a.04.04,0,0,1,.078-.014Zm-1.384-8.85a.04.04,0,0,1,.038-.064l5.028.691a.126.126,0,0,1,.052.231l-3,1.972a.04.04,0,0,1-.055-.01Zm2.128,9.556-2.393.882a.04.04,0,0,1-.054-.038l0-1.059a.04.04,0,0,1,.043-.04l2.39.177a.04.04,0,0,1,.011.078m1.11-.484-1.147-.085a.06.06,0,0,1-.056-.063l.189-4.68a.04.04,0,0,1,.076-.017l1.566,2.965,0,.047-.592,1.806a.041.041,0,0,1-.041.028m.06.616.271.851a.041.041,0,0,1,0,.029L35.408,48.9c-.01.021-.031.036-.073.032l-2.7-.841a.04.04,0,0,1,0-.076l2.942-1.084a.04.04,0,0,1,.052.026m-.8-6.24,2.552.123a.04.04,0,0,1,.036.053l-.95,2.819a.059.059,0,0,1-.057.041.058.058,0,0,1-.053-.032l-1.565-2.945a.04.04,0,0,1,.037-.059M37.9,38.419a.128.128,0,0,1,.165.02.123.123,0,0,1,.032.1l-.043.476-.445,1.32a.041.041,0,0,1-.04.027L35.3,40.249a.04.04,0,0,1-.02-.074Zm-5.837,10,2.181.693a.04.04,0,0,1-.005.078l-2.185.387a.04.04,0,0,1-.047-.04l0-1.08a.04.04,0,0,1,.053-.038m-4.13-1.493,2.941,1.083a.04.04,0,0,1,0,.076l-2.718.844A.06.06,0,0,1,28.1,48.9l-.485-1.057a.04.04,0,0,1,0-.029l.268-.857a.04.04,0,0,1,.052-.026m-2.516-8.582a.06.06,0,0,1,.078-.01l2.777,1.837a.04.04,0,0,1-.02.074l-2.309.111a.04.04,0,0,1-.04-.027l-.445-1.32-.056-.62a.058.058,0,0,1,.015-.045m.471-.384a.058.058,0,0,1,.051-.046l5.191-.713a.04.04,0,0,1,.038.064l-2.05,2.819a.04.04,0,0,1-.055.01l-3.149-2.07a.058.058,0,0,1-.026-.064m5.45,2.708-1.685,4.476a.034.034,0,0,1-.065-.011l-.178-4.412a.04.04,0,0,1,.039-.042l1.85-.066a.04.04,0,0,1,.039.055M29.847,46.2a.06.06,0,0,1-.049-.026.058.058,0,0,1-.007-.055L31.4,41.878a.04.04,0,0,1,.078.014l.014,4.145a.04.04,0,0,1-.037.04Zm1.586-6.074-1.709.061a.04.04,0,0,1-.034-.064l1.735-2.386a.04.04,0,0,1,.073.024l-.026,2.325a.04.04,0,0,1-.039.04m-4.125,4.335,1.566-2.965a.04.04,0,0,1,.076.017l.189,4.68a.06.06,0,0,1-.056.062l-1.146.085a.041.041,0,0,1-.041-.028L27.3,44.5c0-.016,0-.031,0-.047M31.44,47.7l-2.393-.881a.04.04,0,0,1,.011-.078l2.389-.177a.04.04,0,0,1,.043.04l0,1.058a.04.04,0,0,1-.054.038M25.533,37.387l1.791-4.193a.06.06,0,0,1,.056-.037.058.058,0,0,1,.041.016l3.727,3.467a.041.041,0,0,1-.022.07l-5.538.76a.06.06,0,0,1-.055-.084m3.132,3.327a.04.04,0,0,1,.038.059l-1.556,2.945a.057.057,0,0,1-.053.032.059.059,0,0,1-.057-.041l-.95-2.819a.04.04,0,0,1,.036-.053Zm2.768-8.124v.091a.061.061,0,0,1,.06.06l.017,3.481a.04.04,0,0,1-.068.03L27.946,33a.056.056,0,0,1,.035-.1l3.449-.219,0-.091Zm-4.528.345L25.126,37.1a.059.059,0,0,1-.056.037.059.059,0,0,1-.053-.032L22.29,31.915a.1.1,0,0,1,.111-.143l4.463,1.08a.06.06,0,0,1,.041.082m4.547,16.644-2.185-.387a.04.04,0,0,1-.005-.078l2.181-.693a.04.04,0,0,1,.052.038l0,1.08a.04.04,0,0,1-.047.04M24.486,37.2a.059.059,0,0,1-.076.025L19.667,35.2a.139.139,0,0,1-.061-.2l2.011-3.017a.1.1,0,0,1,.167.009l2.7,5.159a.056.056,0,0,1,0,.058m-3.118-5.731-1.9,2.857a.09.09,0,0,1-.165-.041l-.393-4.008.015-.038,1.12-.938a.131.131,0,0,1,.2.033l1.136,1.883a.235.235,0,0,1-.006.252m-2.322-2.083.7-1.731a.042.042,0,0,1,.08.01l.128.986a.174.174,0,0,1-.061.156l-.764.639a.053.053,0,0,1-.083-.061m12.7,2.883Z" transform="translate(-18.321 -26.363)" fill="#05ed99"/><path d="M31.642,50.084h-.028l-.033,0-3.752-.652c-.165-.028-.224-.1-.244-.162l-.645-1.4a.321.321,0,0,1-.015-.227l.36-1.149-.669-2.042L24.787,39l-.1-1.124L18.909,35.42a.326.326,0,0,1-.115-.084l-.017-.024a.321.321,0,0,1-.048-.094l-.011-.052-.51-5.249,0-.011a.34.34,0,0,1,.008-.062l.007-.03,1.243-3.355a.313.313,0,0,1,.345-.2.318.318,0,0,1,.273.291l.307,2.008,1.436,2.423,5.347,1.289,4.448-.28.014,0h.022l4.436.281,5.361-1.294L42.906,28.6l.286-2.055a.32.32,0,0,1,.273-.287.315.315,0,0,1,.344.205l1.246,3.375a.349.349,0,0,1,.011.075v.032l-.517,5.271a.319.319,0,0,1-.05.1l-.014.019a.325.325,0,0,1-.117.088l-5.749,2.458a.051.051,0,0,0-.031.043l-.1,1.1L36.66,44.445l-.671,2.046.361,1.142a.323.323,0,0,1-.014.23l-.651,1.419a.321.321,0,0,1-.279.186l-.017,0-3.691.607A.332.332,0,0,1,31.642,50.084ZM18.36,29.924l.515,5.257a.186.186,0,0,0,.025.044l.013.018a.178.178,0,0,0,.056.038l5.783,2.473a.137.137,0,0,1,.082.112l.1,1.108L26.759,44.4l.684,2.089-.374,1.194a.17.17,0,0,0,.008.12l.648,1.412c.01.027.047.054.129.068l3.789.653.03,0,3.721-.614a.169.169,0,0,0,.153-.1L36.2,47.8a.171.171,0,0,0,.007-.122L35.83,46.49l.686-2.093,1.821-5.405.1-1.08a.2.2,0,0,1,.122-.168l5.748-2.458a.17.17,0,0,0,.059-.043l.01-.014a.164.164,0,0,0,.026-.052l.513-5.252v-.008a.192.192,0,0,0,0-.037l-1.243-3.364a.164.164,0,0,0-.181-.108.169.169,0,0,0-.144.153l-.3,2.1L41.554,31.1,36.11,32.419l-4.454-.283-.013,0h-.017l-4.462.279-.011,0-5.42-1.306L20.245,28.59l-.31-2.028a.17.17,0,0,0-.144-.159.163.163,0,0,0-.181.108l-1.243,3.366a.163.163,0,0,0,0,.036ZM31.929,49.542a.116.116,0,0,1-.116-.117l0-1.08a.116.116,0,0,1,.116-.115l.036.006,2.181.693a.116.116,0,0,1-.015.225Zm.039-1.147,0,.99,2-.355Zm-.622,1.147-.021,0-2.185-.387a.116.116,0,0,1-.015-.225l2.217-.7a.116.116,0,0,1,.116.116l0,1.079A.117.117,0,0,1,31.347,49.542Zm-2.038-.513,2,.354,0-.989Zm-1.261-.135h-.011a.136.136,0,0,1-.123-.08l-.485-1.057a.113.113,0,0,1,0-.085l.267-.855a.115.115,0,0,1,.111-.081l.041.008,2.941,1.083a.116.116,0,0,1-.006.22Zm-.476-1.188.473,1.03,2.589-.8L27.824,46.9Zm7.661,1.185-.034,0-2.7-.841a.116.116,0,0,1-.005-.22l2.982-1.091a.115.115,0,0,1,.111.081l.271.851a.119.119,0,0,1,0,.083l-.488,1.063A.135.135,0,0,1,35.233,48.892Zm-2.591-.959,2.589.806.476-1.038-.255-.8Zm-.707-.265a.116.116,0,0,1-.116-.116l0-1.059a.116.116,0,0,1,.116-.115h.009l2.389.177a.116.116,0,0,1,.032.224Zm.039-1.137,0,.972,2.193-.81Zm-.634,1.136-.04-.007-2.393-.881a.116.116,0,0,1,.032-.224l2.4-.177a.116.116,0,0,1,.116.116l0,1.057a.116.116,0,0,1-.116.117Zm-2.227-.974L31.3,47.5l0-.969Zm6.343-.394L34.3,46.215a.135.135,0,0,1-.126-.141l.189-4.68a.116.116,0,0,1,.218-.051l1.575,2.994.006.063,0,.015-.592,1.806A.115.115,0,0,1,35.455,46.3Zm-1.129-.235,1.1.081.578-1.764v-.016l-1.5-2.836Zm-6.5.234a.118.118,0,0,1-.118-.078l-.6-1.821.013-.092,1.566-2.965a.116.116,0,0,1,.218.05l.189,4.68a.136.136,0,0,1-.125.141l-1.147.085Zm-.561-1.917.578,1.765,1.1-.082-.183-4.535Zm2.471,1.776a.137.137,0,0,1-.115-.057.135.135,0,0,1-.016-.127l1.605-4.237a.116.116,0,0,1,.224.041l.014,4.144a.116.116,0,0,1-.108.116l-1.6.119Zm1.548-4.188-1.529,4.035,1.542-.114Zm2.252,4.188-1.605-.119a.116.116,0,0,1-.108-.116l.014-4.146a.116.116,0,0,1,.225-.041l1.605,4.237a.135.135,0,0,1-.015.126A.138.138,0,0,1,33.538,46.158Zm-1.561-.267,1.542.114L31.99,41.97ZM29.5,45.129a.109.109,0,0,1-.109-.1l-.178-4.412a.116.116,0,0,1,.112-.121l1.854-.066a.116.116,0,0,1,.109.157l-1.685,4.476A.108.108,0,0,1,29.5,45.129Zm-.135-4.488.168,4.17,1.593-4.232Zm4.4,4.461a.108.108,0,0,1-.1-.071l-1.693-4.448a.116.116,0,0,1,.108-.157h0l1.857.066a.116.116,0,0,1,.112.12L33.882,45A.109.109,0,0,1,33.773,45.1Zm-1.634-4.523.566,1.476,1.035,2.73.168-4.144Zm4.156,3.134a.133.133,0,0,1-.12-.073L34.611,40.7a.116.116,0,0,1,.1-.17h.006l2.552.123a.116.116,0,0,1,.09.05.117.117,0,0,1,.014.1l-.95,2.819A.135.135,0,0,1,36.295,43.713ZM34.773,40.68l1.519,2.859.924-2.741Zm-7.792,3.034a.135.135,0,0,1-.129-.092L25.9,40.8a.116.116,0,0,1,.1-.153l2.548-.123a.116.116,0,0,1,.1.17L27.1,43.641A.134.134,0,0,1,26.981,43.713ZM26.06,40.8l.924,2.741,1.51-2.858Zm11.393-.476-2.269-.109A.116.116,0,0,1,35.124,40l2.616-1.756a.208.208,0,0,1,.263.032.2.2,0,0,1,.052.154l-.043.476-.448,1.337A.117.117,0,0,1,37.453,40.321ZM35.3,40.065l2.131.1.436-1.294.039-.458a.047.047,0,0,0-.012-.038.046.046,0,0,0-.067-.009Zm-9.469.256a.118.118,0,0,1-.115-.078l-.445-1.32-.059-.637a.135.135,0,0,1,.034-.1.14.14,0,0,1,.176-.023L28.2,40a.116.116,0,0,1-.058.213l-2.309.111ZM25.357,38.3l.059.592.433,1.277,2.175-.1Zm8.31,1.846-1.713-.061a.116.116,0,0,1-.112-.115l-.031-2.332a.114.114,0,0,1,.033-.083.119.119,0,0,1,.177.013l1.74,2.394a.116.116,0,0,1-.094.184Zm-1.674-.211,1.6.057-1.632-2.245Zm-2.379.211a.117.117,0,0,1-.107-.064.115.115,0,0,1,.01-.121l1.734-2.386a.119.119,0,0,1,.177-.013.115.115,0,0,1,.033.082l-.026,2.326a.116.116,0,0,1-.112.115l-1.709.061Zm1.694-2.392-1.627,2.238,1.6-.057Zm3,2.311a.116.116,0,0,1-.094-.048L32.153,37.2a.116.116,0,0,1,.093-.184h.017l5.027.691a.2.2,0,0,1,.17.156.2.2,0,0,1-.086.213l-3,1.972A.114.114,0,0,1,34.309,40.064Zm-1.984-2.89L34.317,39.9l2.974-1.954a.048.048,0,0,0,.022-.055.047.047,0,0,0-.043-.038Zm-3.358,2.89a.115.115,0,0,1-.065-.02l-3.149-2.069a.136.136,0,0,1,.056-.248l5.207-.714a.116.116,0,0,1,.093.185l-2.05,2.818A.116.116,0,0,1,28.967,40.064Zm-3.1-2.192L28.958,39.9l1.981-2.725Zm-.389-.439a.138.138,0,0,1-.12-.06.136.136,0,0,1-.012-.128l1.791-4.194a.139.139,0,0,1,.218-.045l3.726,3.467a.116.116,0,0,1-.063.2l-5.538.76Zm1.79-4.3L25.5,37.278l5.428-.745Zm10.4,4.286-5.423-.744a.116.116,0,0,1-.064-.2l3.726-3.467a.14.14,0,0,1,.1-.041.132.132,0,0,1,.121.088l1.745,4.084a.2.2,0,0,1-.017.191A.211.211,0,0,1,37.676,37.417Zm-5.328-.884,5.337.733a.064.064,0,0,0,.049-.022.048.048,0,0,0,0-.047L36,33.132Zm-8.026.66a.137.137,0,0,1-.055-.011l-4.743-2.029a.215.215,0,0,1-.094-.316L21.44,31.82a.18.18,0,0,1,.3.015l2.7,5.159a.132.132,0,0,1,0,.132A.135.135,0,0,1,24.321,37.193Zm-2.737-5.3a.021.021,0,0,0-.018.01l-2.011,3.017a.063.063,0,0,0,.028.093L24.3,37.031l-2.7-5.126A.021.021,0,0,0,21.584,31.894ZM39.1,37.13a.2.2,0,0,1-.173-.1.2.2,0,0,1-.005-.2l2.627-5.014a.166.166,0,0,1,.274-.014l2.166,3.251L39.18,37.113A.2.2,0,0,1,39.1,37.13Zm2.59-5.245a.008.008,0,0,0-.008,0L39.055,36.9a.046.046,0,0,0,0,.049.051.051,0,0,0,.064.021l4.642-1.986ZM24.957,37.1a.134.134,0,0,1-.12-.073l-2.728-5.189a.173.173,0,0,1,0-.171.177.177,0,0,1,.191-.08l4.463,1.08a.136.136,0,0,1,.093.185l-1.779,4.165A.135.135,0,0,1,24.957,37.1Zm-2.694-5.367a.024.024,0,0,0-.02.012.022.022,0,0,0,0,.023l2.713,5.161,1.759-4.118Zm16.062,5.281a.2.2,0,0,1-.186-.123l-1.724-4.036a.136.136,0,0,1,.092-.185l4.486-1.085a.16.16,0,0,1,.179.229L38.5,36.906A.2.2,0,0,1,38.326,37.014Zm-1.764-4.2,1.717,4.019a.051.051,0,0,0,.092,0l2.668-5.091-.007-.012h0Zm-4.638,3.413a.117.117,0,0,1-.083-.035.115.115,0,0,1-.034-.082l.012-3.482a.135.135,0,0,1,.06-.112l.008-.071.131-.265.013.318,3.347.212a.147.147,0,0,1,.129.1.145.145,0,0,1-.038.156L32,36.195A.116.116,0,0,1,31.924,36.226Zm.047-3.582-.011,3.385,3.407-3.177Zm-.614,3.58a.116.116,0,0,1-.079-.031l-3.5-3.254a.132.132,0,0,1,.082-.228l3.382-.215v-.023l.151,0v.038a.137.137,0,0,1,.06.112l.017,3.481a.115.115,0,0,1-.033.082A.118.118,0,0,1,31.357,36.225Zm-3.439-3.365,3.4,3.168-.016-3.383Zm16.119,1.57a.115.115,0,0,1-.1-.052l-1.965-2.933a.322.322,0,0,1-.012-.341l1.137-2a.12.12,0,0,1,.172-.034l1.275,1a.116.116,0,0,1,.043.1l-.439,4.146A.115.115,0,0,1,44.036,34.429Zm-.825-5.212-1.116,1.961a.172.172,0,0,0,.006.182l1.91,2.852.426-4.03ZM19.277,34.329a.166.166,0,0,1-.166-.15l-.394-4.026.044-.085,1.12-.938a.211.211,0,0,1,.309.052l1.136,1.883a.312.312,0,0,1-.007.333l-1.9,2.856A.163.163,0,0,1,19.277,34.329Zm-.406-4.154.391,3.989a.014.014,0,0,0,.015.013l1.915-2.863a.16.16,0,0,0,0-.171L20.06,29.26a.049.049,0,0,0-.082-.014Zm.112-.753a.129.129,0,0,1-.107-.058.126.126,0,0,1-.012-.12l.7-1.73a.117.117,0,0,1,.225.029l.128.986a.248.248,0,0,1-.088.224l-.764.638A.127.127,0,0,1,18.982,29.422Zm.673-1.731-.622,1.537.7-.591a.1.1,0,0,0,.035-.088ZM44.275,29.4a.139.139,0,0,1-.088-.031l-.827-.651-.03-.076.185-1.2a.116.116,0,0,1,.223-.023l.669,1.783a.14.14,0,0,1-.016.13A.143.143,0,0,1,44.275,29.4Zm-.789-.775.795.625L43.645,27.6Z" transform="translate(-18.208 -26.25)" fill="#05ed99"/></g></g><g transform="translate(51.739 12.955)"><path d="M124.982,32.726a6.877,6.877,0,0,0-3.37.851V28.115a.428.428,0,0,0-.428-.428h-1.837a.428.428,0,0,0-.428.428v18.4l.212.076a15.8,15.8,0,0,0,5.09.9c4.356,0,6.3-2.259,6.3-7.324,0-4.937-1.863-7.441-5.536-7.441m-.762,12.393a11.941,11.941,0,0,1-2.609-.342V36.011a5.989,5.989,0,0,1,3.019-.856c2.6,0,3.136,2,3.136,5.011,0,3.61-.961,4.952-3.546,4.952" transform="translate(-118.918 -27.686)" fill="#f7f7f7"/><path d="M154.578,55.139h1.837a.428.428,0,0,0,.428-.428V41.389a.428.428,0,0,0-.428-.428h-1.837a.428.428,0,0,0-.428.428V54.711a.428.428,0,0,0,.428.428" transform="translate(-139.997 -35.628)" fill="#f7f7f7"/><path d="M174.151,40.231a6.674,6.674,0,0,0-3.817,1.2l-.163-.908h-1.744a.428.428,0,0,0-.428.428V59.607a.428.428,0,0,0,.428.428h1.837a.428.428,0,0,0,.428-.428V54.692a13.216,13.216,0,0,0,2.726.3c4.217,0,6.181-2.336,6.181-7.353,0-3.381-.945-7.411-5.448-7.411m2.7,7.47c0,3.589-.953,4.923-3.517,4.923a13.229,13.229,0,0,1-2.638-.316V43.684a5.767,5.767,0,0,1,3.136-1.023c1.493,0,3.019.6,3.019,5.041" transform="translate(-148.283 -35.192)" fill="#f7f7f7"/><path d="M207.995,46.311c-.23-.074-.452-.142-.665-.208-1.822-.564-2.628-.854-2.628-1.83,0-1.309,1.45-1.583,2.667-1.583a19.253,19.253,0,0,1,3.478.4.322.322,0,0,0,.384-.262l.342-2.087-.3-.066a19.6,19.6,0,0,0-3.849-.447c-3.43,0-5.478,1.544-5.478,4.13,0,2.785,2.463,3.573,4.635,4.268l.071.023c2.157.689,2.912,1.023,2.912,2.067,0,1.206-1.016,1.818-3.019,1.818a18.627,18.627,0,0,1-3.965-.518.321.321,0,0,0-.393.25l-.411,2.088.3.073a19.022,19.022,0,0,0,4.383.566c3.759,0,5.829-1.56,5.829-4.394,0-2.674-1.945-3.525-4.3-4.291" transform="translate(-168.493 -35.192)" fill="#f7f7f7"/><path d="M275.364,40.231a7.784,7.784,0,0,0-4.321,1.373l-.2-1.08h-1.7a.428.428,0,0,0-.428.428V54.274a.428.428,0,0,0,.428.428h1.837a.428.428,0,0,0,.428-.428V43.889a7.084,7.084,0,0,1,3.6-1.2c1.56,0,2.286.8,2.286,2.521v9.064a.428.428,0,0,0,.428.428h1.837a.428.428,0,0,0,.428-.428V45.006c0-2.99-1.73-4.775-4.628-4.775" transform="translate(-208.54 -35.192)" fill="#f7f7f7"/><path d="M312.4,51.613l-.307.127a9.945,9.945,0,0,1-3.627.8c-2.554,0-3.693-1.527-3.693-4.953,0-3.522,1.077-4.894,3.839-4.894a19.987,19.987,0,0,1,3.281.375l.322.06.347-2.081a.321.321,0,0,0-.241-.365,16.639,16.639,0,0,0-3.709-.449c-4.435,0-6.591,2.376-6.591,7.265,0,4.906,2.188,7.5,6.328,7.5a11.249,11.249,0,0,0,4.618-1.026.322.322,0,0,0,.166-.4Z" transform="translate(-228.465 -35.192)" fill="#f7f7f7"/><path d="M156.388,28.016a1.439,1.439,0,0,0-2.028,2.028.443.443,0,0,0,.1.1,1.439,1.439,0,0,0,2.028-2.028.434.434,0,0,0-.1-.1" transform="translate(-139.925 -27.686)" fill="#f7f7f7"/><path d="M237.807,51.089l3.4-10.066a.431.431,0,0,1,.406-.29h2.205a.428.428,0,0,1,.4.579l-5.61,14.862q-1.59,4.252-5.3,4.252a8.328,8.328,0,0,1-1.873-.209l-.214-1.782a.426.426,0,0,1,.478-.425,11.339,11.339,0,0,0,1.227.063q2.1,0,2.945-2.428l.505-1.282-5.236-13.042a.428.428,0,0,1,.4-.588h2.22a.428.428,0,0,1,.4.284Z" transform="translate(-186.044 -35.492)" fill="#f7f7f7"/></g></g></svg>